<svg xmlns="http://www.w3.org/2000/svg" width="32" height="32" viewBox="0 0 32 32">
  <g id="Group_8" data-name="Group 8" transform="translate(-533 -541)">
    <path id="Path_18" data-name="Path 18" d="M13.341,14.966A45.742,45.742,0,0,0,11.4,7.113a10.9,10.9,0,0,1-.7-3.25A4.065,4.065,0,0,1,11.635.992a2.707,2.707,0,0,1,2-.988,3.208,3.208,0,0,1,2.234.975,3.725,3.725,0,0,1,1.043,2.843,15.9,15.9,0,0,1-1.083,4.184,25.414,25.414,0,0,0-1.354,6.96,26.608,26.608,0,0,0,4.915-4.671c2.275-2.627,4.13-3.927,5.673-3.927a3.018,3.018,0,0,1,2.018.758,2.707,2.707,0,0,1,.867,2.085A3.251,3.251,0,0,1,26.6,12.055a11.855,11.855,0,0,1-4.441,1.489,29,29,0,0,0-7.136,2.316,19.978,19.978,0,0,0,5.565,1.746c3.115.569,5.119,1.273,6.04,2.1a3.78,3.78,0,0,1,1.354,2.817,2.5,2.5,0,0,1-.813,1.855,2.8,2.8,0,0,1-2.058.8c-1.652,0-3.548-1.192-5.714-3.6a31.673,31.673,0,0,0-4.97-4.7,26.149,26.149,0,0,0,1.828,7.7,9.622,9.622,0,0,1,.772,3.1,4.188,4.188,0,0,1-.908,2.709,2.71,2.71,0,0,1-2.18,1.083,2.979,2.979,0,0,1-2.14-1.015,3.834,3.834,0,0,1-.961-2.736,10.929,10.929,0,0,1,.772-3.223A32.567,32.567,0,0,0,13.4,16.835a23.7,23.7,0,0,0-5.674,5.416c-1.6,1.991-3.114,2.966-4.576,2.966a3.36,3.36,0,0,1-2.221-.745,2.572,2.572,0,0,1-.92-2.1Q0,18.961,6.1,17.919a18.725,18.725,0,0,0,6.77-2.018A24.638,24.638,0,0,0,6,13.626Q.125,12.57.112,9.279a2.6,2.6,0,0,1,.92-2.017A2.993,2.993,0,0,1,3.1,6.436q2.207,0,5.01,3.263c.772.894,1.49,1.665,2.167,2.316l3.06,2.952" transform="translate(535 541.195)" fill="#007acd"/>
    <rect id="Rectangle_13" data-name="Rectangle 13" width="32" height="32" transform="translate(533 541)" fill="none"/>
  </g>
</svg>
