<svg xmlns="http://www.w3.org/2000/svg" width="440" height="280" viewBox="0 0 440 280">
  <g id="Group_18" data-name="Group 18" transform="translate(-63 -157)">
    <path id="Path_22" data-name="Path 22" d="M0,0H440V280H0Z" transform="translate(63 157)" fill="#007acd"/>
    <path id="Path_17" data-name="Path 17" d="M22.893,25.679A78.491,78.491,0,0,0,19.57,12.2a18.71,18.71,0,0,1-1.209-5.577,6.975,6.975,0,0,1,1.6-4.926A4.644,4.644,0,0,1,23.4,0a5.5,5.5,0,0,1,3.834,1.672,6.393,6.393,0,0,1,1.789,4.879,27.285,27.285,0,0,1-1.859,7.18,43.609,43.609,0,0,0-2.323,11.943,45.658,45.658,0,0,0,8.435-8.016c3.9-4.508,7.086-6.738,9.735-6.738a5.179,5.179,0,0,1,3.463,1.3A4.645,4.645,0,0,1,47.965,15.8a5.579,5.579,0,0,1-2.324,4.88A20.343,20.343,0,0,1,38.02,23.24a49.757,49.757,0,0,0-12.245,3.974,34.281,34.281,0,0,0,9.549,3c5.345.976,8.783,2.184,10.364,3.6a6.486,6.486,0,0,1,2.323,4.833,4.3,4.3,0,0,1-1.394,3.184A4.811,4.811,0,0,1,43.085,43.2c-2.835,0-6.088-2.045-9.805-6.181a54.35,54.35,0,0,0-8.528-8.063,44.871,44.871,0,0,0,3.137,13.221A16.511,16.511,0,0,1,29.213,47.5a7.186,7.186,0,0,1-1.557,4.648A4.65,4.65,0,0,1,23.915,54a5.112,5.112,0,0,1-3.672-1.742,6.579,6.579,0,0,1-1.649-4.694,18.753,18.753,0,0,1,1.324-5.53,55.885,55.885,0,0,0,3.067-13.152,40.664,40.664,0,0,0-9.736,9.294C10.508,41.6,7.906,43.269,5.4,43.269a5.765,5.765,0,0,1-3.811-1.279,4.413,4.413,0,0,1-1.579-3.6q0-5.855,10.456-7.644a32.131,32.131,0,0,0,11.618-3.463,42.279,42.279,0,0,0-11.78-3.9Q.215,21.566.192,15.92a4.459,4.459,0,0,1,1.579-3.462,5.135,5.135,0,0,1,3.556-1.417q3.788,0,8.6,5.6c1.325,1.533,2.557,2.858,3.718,3.973l5.251,5.065" transform="translate(75 242.996)" fill="#fff"/>
    <text id="distractionfree" transform="translate(112 321)" fill="#fff" font-size="58" font-family="Helvetica"><tspan x="0" y="0">distraction</tspan><tspan y="0" font-family="Helvetica-Light, Helvetica" font-weight="300">free</tspan></text>
  </g>
</svg>
