<svg xmlns="http://www.w3.org/2000/svg" xmlns:xlink="http://www.w3.org/1999/xlink" width="256" height="192" viewBox="0 0 256 192">
  <defs>
    <clipPath id="clip-path">
      <rect id="Rectangle_12" data-name="Rectangle 12" width="256" height="192" transform="translate(268 236)" fill="#fff" stroke="#707070" stroke-width="1" opacity="0.517"/>
    </clipPath>
  </defs>
  <g id="Mask_Group_2" data-name="Mask Group 2" transform="translate(-268 -236)" clip-path="url(#clip-path)">
    <g id="Rectangle_11" data-name="Rectangle 11" transform="translate(258 209)" fill="#007acd" stroke="#707070" stroke-width="1">
      <rect width="290" height="240" stroke="none"/>
      <rect x="0.5" y="0.5" width="289" height="239" fill="none"/>
    </g>
    <g id="Group_1" data-name="Group 1" transform="translate(209 98)">
      <path id="Path_22" data-name="Path 22" d="M0,0H256V162.909H0Z" transform="translate(63 157)" fill="#007acd"/>
      <path id="Path_17" data-name="Path 17" d="M13.32,14.942A45.667,45.667,0,0,0,11.386,7.1a10.886,10.886,0,0,1-.7-3.245A4.058,4.058,0,0,1,11.616.99a2.7,2.7,0,0,1,2-.986,3.2,3.2,0,0,1,2.23.973,3.719,3.719,0,0,1,1.041,2.839,15.875,15.875,0,0,1-1.082,4.178,25.373,25.373,0,0,0-1.352,6.949,26.565,26.565,0,0,0,4.907-4.664c2.271-2.623,4.123-3.921,5.664-3.921a3.013,3.013,0,0,1,2.015.757A2.7,2.7,0,0,1,27.907,9.2a3.246,3.246,0,0,1-1.352,2.839,11.836,11.836,0,0,1-4.434,1.487A28.949,28.949,0,0,0,15,15.835a19.946,19.946,0,0,0,5.556,1.744c3.11.568,5.11,1.271,6.03,2.1a3.774,3.774,0,0,1,1.352,2.812,2.5,2.5,0,0,1-.811,1.852,2.8,2.8,0,0,1-2.055.8c-1.649,0-3.542-1.19-5.7-3.6A31.622,31.622,0,0,0,14.4,16.849a26.107,26.107,0,0,0,1.825,7.692,9.606,9.606,0,0,1,.771,3.1,4.181,4.181,0,0,1-.906,2.7,2.705,2.705,0,0,1-2.176,1.081,2.974,2.974,0,0,1-2.136-1.014,3.828,3.828,0,0,1-.96-2.731,10.911,10.911,0,0,1,.771-3.217,32.515,32.515,0,0,0,1.784-7.652,23.659,23.659,0,0,0-5.665,5.408C6.114,24.2,4.6,25.176,3.14,25.176a3.354,3.354,0,0,1-2.218-.744A2.567,2.567,0,0,1,0,22.337Q0,18.93,6.087,17.89a18.694,18.694,0,0,0,6.759-2.015A24.6,24.6,0,0,0,5.992,13.6Q.125,12.549.112,9.264A2.594,2.594,0,0,1,1.031,7.25,2.988,2.988,0,0,1,3.1,6.425q2.2,0,5,3.258c.771.892,1.488,1.663,2.163,2.312l3.055,2.947" transform="translate(69.981 207.032)" fill="#fff"/>
      <text id="distractionfree" transform="translate(92 251)" fill="#fff" font-size="33" font-family="Helvetica"><tspan x="0" y="0">distraction</tspan><tspan y="0" font-family="Helvetica-Light, Helvetica" font-weight="300">free</tspan></text>
    </g>
  </g>
</svg>
