<svg xmlns="http://www.w3.org/2000/svg" xmlns:xlink="http://www.w3.org/1999/xlink" width="32" height="32" viewBox="0 0 32 32">
  <defs>
    <clipPath id="clip-path">
      <rect id="Rectangle_10" data-name="Rectangle 10" width="32" height="25" fill="#fff"/>
    </clipPath>
  </defs>
  <g id="icon32" transform="translate(-737 -471)">
    <rect id="Rectangle_6" data-name="Rectangle 6" width="32" height="32" transform="translate(737 471)" fill="none"/>
    <g id="Discord-Logo-Color" transform="translate(737 475)" clip-path="url(#clip-path)">
      <path id="Path_5" data-name="Path 5" d="M26.926,2.421A26.229,26.229,0,0,0,20.452.413a.1.1,0,0,0-.1.049,18.271,18.271,0,0,0-.806,1.656,24.215,24.215,0,0,0-7.272,0A16.757,16.757,0,0,0,11.451.463a.1.1,0,0,0-.1-.049A26.156,26.156,0,0,0,4.873,2.421a.093.093,0,0,0-.043.037,26.844,26.844,0,0,0-4.7,18.1.109.109,0,0,0,.041.074,26.376,26.376,0,0,0,7.942,4.015.1.1,0,0,0,.112-.037,18.852,18.852,0,0,0,1.625-2.643.1.1,0,0,0-.055-.14,17.37,17.37,0,0,1-2.481-1.183.1.1,0,0,1-.01-.169c.167-.125.334-.255.493-.386a.1.1,0,0,1,.1-.014,18.81,18.81,0,0,0,15.985,0,.1.1,0,0,1,.1.013c.159.131.326.263.494.387a.1.1,0,0,1-.009.169,16.3,16.3,0,0,1-2.482,1.181.1.1,0,0,0-.054.141,21.167,21.167,0,0,0,1.624,2.642.1.1,0,0,0,.112.038,26.288,26.288,0,0,0,7.955-4.015.1.1,0,0,0,.041-.073,26.668,26.668,0,0,0-4.7-18.1A.081.081,0,0,0,26.926,2.421Zm-16.3,14.527A3.057,3.057,0,0,1,7.77,13.743a3.04,3.04,0,0,1,2.859-3.206,3.024,3.024,0,0,1,2.858,3.206A3.04,3.04,0,0,1,10.629,16.948Zm10.569,0a3.057,3.057,0,0,1-2.858-3.206A3.04,3.04,0,0,1,21.2,10.537a3.024,3.024,0,0,1,2.859,3.206A3.032,3.032,0,0,1,21.2,16.948Z" transform="translate(0 -0.227)" fill="#5865f2"/>
    </g>
  </g>
</svg>
