<svg xmlns="http://www.w3.org/2000/svg" xmlns:xlink="http://www.w3.org/1999/xlink" width="440" height="280" viewBox="0 0 440 280">
  <defs>
    <clipPath id="clip-path">
      <rect id="Rectangle_15" data-name="Rectangle 15" width="121" height="93" fill="#fff"/>
    </clipPath>
  </defs>
  <g id="small-tile-promo" transform="translate(-630 -759)">
    <g id="small-promo-tile" transform="translate(630 759)" fill="#5865f2" stroke="#707070" stroke-width="1">
      <rect width="440" height="280" stroke="none"/>
      <rect x="0.5" y="0.5" width="439" height="279" fill="none"/>
    </g>
    <g id="Discord-Logo-White" transform="translate(654 852)" clip-path="url(#clip-path)">
      <path id="Path_8" data-name="Path 8" d="M102.041,8.028A99.4,99.4,0,0,0,77.506.418.372.372,0,0,0,77.111.6,69.239,69.239,0,0,0,74.056,6.88a91.766,91.766,0,0,0-27.557,0A63.505,63.505,0,0,0,43.4.6.387.387,0,0,0,43,.418a99.124,99.124,0,0,0-24.535,7.61.351.351,0,0,0-.161.139C2.679,31.513-1.6,54.285.5,76.775a.414.414,0,0,0,.157.282,99.957,99.957,0,0,0,30.1,15.215.39.39,0,0,0,.423-.139,71.442,71.442,0,0,0,6.157-10.016.382.382,0,0,0-.209-.531,65.826,65.826,0,0,1-9.4-4.482.387.387,0,0,1-.038-.641c.632-.473,1.264-.966,1.867-1.464a.373.373,0,0,1,.39-.053,71.284,71.284,0,0,0,60.578,0,.371.371,0,0,1,.394.048c.6.5,1.235.995,1.872,1.468a.386.386,0,0,1-.033.641,61.77,61.77,0,0,1-9.407,4.477.385.385,0,0,0-.2.536,80.215,80.215,0,0,0,6.153,10.011.382.382,0,0,0,.423.143,99.625,99.625,0,0,0,30.146-15.215.387.387,0,0,0,.157-.277c2.513-26-4.21-48.586-17.822-68.608A.307.307,0,0,0,102.041,8.028ZM40.28,63.081c-5.939,0-10.833-5.453-10.833-12.149s4.8-12.149,10.833-12.149c6.081,0,10.928,5.5,10.833,12.149C51.113,57.628,46.314,63.081,40.28,63.081Zm40.053,0c-5.939,0-10.833-5.453-10.833-12.149s4.8-12.149,10.833-12.149c6.082,0,10.928,5.5,10.833,12.149C91.166,57.628,86.414,63.081,80.333,63.081Z" transform="translate(0 0.287)" fill="#fff"/>
    </g>
    <text id="Joiner" transform="translate(802 934)" fill="#fff" font-size="86" font-family="Impact"><tspan x="0" y="0">Joiner</tspan></text>
  </g>
</svg>
