<svg xmlns="http://www.w3.org/2000/svg" xmlns:xlink="http://www.w3.org/1999/xlink" width="32" height="32" viewBox="0 0 32 32">
  <defs>
    <clipPath id="clip-path">
      <rect id="Rectangle_12" data-name="Rectangle 12" width="16.289" height="15.887" fill="none"/>
    </clipPath>
  </defs>
  <g id="github-icon" transform="translate(-631 -729)">
    <circle id="Ellipse_1" data-name="Ellipse 1" cx="16" cy="16" r="16" transform="translate(631 729)"/>
    <g id="Group_2" data-name="Group 2" transform="translate(639 737)">
      <g id="Group_1" data-name="Group 1" clip-path="url(#clip-path)">
        <path id="Path_1" data-name="Path 1" d="M8.144,0A8.146,8.146,0,0,0,5.57,15.873c.407.075.556-.177.556-.393,0-.193-.008-.706-.012-1.385C3.85,14.587,3.372,13,3.372,13a2.16,2.16,0,0,0-.9-1.191c-.74-.505.056-.495.056-.495a1.711,1.711,0,0,1,1.247.839,1.734,1.734,0,0,0,2.37.677,1.744,1.744,0,0,1,.517-1.089c-1.808-.206-3.71-.9-3.71-4.026a3.149,3.149,0,0,1,.839-2.185,2.926,2.926,0,0,1,.08-2.156s.684-.219,2.24.835a7.724,7.724,0,0,1,4.078,0c1.556-1.054,2.238-.835,2.238-.835A2.923,2.923,0,0,1,12.5,5.534a3.146,3.146,0,0,1,.837,2.185c0,3.129-1.9,3.818-3.719,4.019a1.946,1.946,0,0,1,.552,1.509c0,1.089-.01,1.967-.01,2.234,0,.218.147.471.56.392A8.146,8.146,0,0,0,8.144,0" transform="translate(0 0)" fill="#fff" fill-rule="evenodd"/>
      </g>
    </g>
  </g>
</svg>
