<svg xmlns="http://www.w3.org/2000/svg" width="32" height="32" viewBox="0 0 32 32">
  <g id="github-grey" transform="translate(-565 -591)">
    <rect id="Rectangle_28" data-name="Rectangle 28" width="32" height="32" rx="4" transform="translate(565 591)" fill="#7f7f7f"/>
    <g id="github-icon" transform="translate(565 591)">
      <circle id="Ellipse_1" data-name="Ellipse 1" cx="16" cy="16" r="16" fill="#7f7f7f"/>
      <path id="Path_1" data-name="Path 1" d="M11.5,0A11.5,11.5,0,0,0,7.864,22.41c.575.105.785-.25.785-.555,0-.272-.011-1-.016-1.955-3.2.695-3.873-1.542-3.873-1.542a3.049,3.049,0,0,0-1.277-1.682c-1.044-.713.08-.7.08-.7a2.416,2.416,0,0,1,1.761,1.185,2.449,2.449,0,0,0,3.346.956A2.462,2.462,0,0,1,9.4,16.58C6.846,16.29,4.162,15.3,4.162,10.9A4.445,4.445,0,0,1,5.346,7.812a4.131,4.131,0,0,1,.113-3.043S6.424,4.46,8.62,5.948a10.9,10.9,0,0,1,5.757,0c2.2-1.488,3.16-1.179,3.16-1.179a4.127,4.127,0,0,1,.114,3.043A4.441,4.441,0,0,1,18.834,10.9c0,4.417-2.689,5.389-5.25,5.674a2.747,2.747,0,0,1,.78,2.13c0,1.537-.014,2.777-.014,3.154,0,.308.208.666.791.553A11.5,11.5,0,0,0,11.5,0" transform="translate(4.582 4.754)" fill="#fff" fill-rule="evenodd"/>
    </g>
  </g>
</svg>
