<svg xmlns="http://www.w3.org/2000/svg" width="42.656" height="32" viewBox="0 0 42.656 32">
  <g id="gmail-grey" transform="translate(-52 -41.983)">
    <path id="Path_9" data-name="Path 9" d="M54.908,82.751h6.786V66.271L52,59V79.843a2.908,2.908,0,0,0,2.908,2.908" transform="translate(0 -8.768)" fill="#7d7d7d"/>
    <path id="Path_10" data-name="Path 10" d="M120,82.751h6.786a2.908,2.908,0,0,0,2.908-2.908V59L120,66.271" transform="translate(-35.039 -8.768)" fill="#7b7b7b"/>
    <path id="Path_11" data-name="Path 11" d="M120,44.9V57.5l9.694-7.271V46.354a4.362,4.362,0,0,0-6.98-3.49" transform="translate(-35.039)" fill="#bababa"/>
    <path id="Path_12" data-name="Path 12" d="M72,60.6V48l11.633,8.725L95.267,48V60.6L83.633,69.328" transform="translate(-10.306 -3.1)" fill="#737373"/>
    <path id="Path_13" data-name="Path 13" d="M52,46.354v3.878L61.694,57.5V44.9L58.98,42.864A4.362,4.362,0,0,0,52,46.354" fill="#525252"/>
  </g>
</svg>
