<svg id="linkedin" xmlns="http://www.w3.org/2000/svg" width="32" height="32" viewBox="0 0 32 32">
  <path id="Path_7" data-name="Path 7" d="M38,33.556A4.444,4.444,0,0,1,33.556,38H10.444A4.444,4.444,0,0,1,6,33.556V10.444A4.444,4.444,0,0,1,10.444,6H33.556A4.444,4.444,0,0,1,38,10.444Z" transform="translate(-6 -6)" fill="#0b65c2"/>
  <path id="Path_8" data-name="Path 8" d="M12,18.222h4.444V33.333H12Zm2.209-1.778h-.025A2.127,2.127,0,0,1,12,14.221,2.138,2.138,0,0,1,14.235,12a2.131,2.131,0,0,1,2.21,2.221A2.14,2.14,0,0,1,14.209,16.444ZM33.333,33.333H28.889V25.245c0-1.954-1.089-3.287-2.837-3.287a2.548,2.548,0,0,0-2.406,1.769,6.411,6.411,0,0,0-.09,1.606v8H19.111V18.222h4.444v2.325a4.5,4.5,0,0,1,4.212-2.325c3.18,0,5.565,2,5.565,6.466v8.645Z" transform="translate(-6.667 -6.667)" fill="#fff"/>
</svg>
