<svg id="telegram-icon" xmlns="http://www.w3.org/2000/svg" xmlns:xlink="http://www.w3.org/1999/xlink" width="32" height="32" viewBox="0 0 32 32">
  <defs>
    <linearGradient id="linear-gradient" x1="0.5" x2="0.5" y2="0.993" gradientUnits="objectBoundingBox">
      <stop offset="0" stop-color="#2aabee"/>
      <stop offset="1" stop-color="#229ed9"/>
    </linearGradient>
  </defs>
  <circle id="Ellipse_2" data-name="Ellipse 2" cx="16" cy="16" r="16" fill="url(#linear-gradient)"/>
  <path id="Path_2" data-name="Path 2" d="M25.387,44.727q7-3.048,9.331-4.019c4.443-1.848,5.367-2.169,5.968-2.18a1.053,1.053,0,0,1,.62.186.674.674,0,0,1,.228.433,2.822,2.822,0,0,1,.027.63c-.241,2.53-1.283,8.67-1.813,11.5-.224,1.2-.666,1.6-1.093,1.64-.929.086-1.635-.614-2.535-1.2-1.408-.923-2.2-1.5-3.571-2.4-1.58-1.041-.556-1.613.345-2.548.236-.245,4.329-3.968,4.409-4.306a.327.327,0,0,0-.074-.283.369.369,0,0,0-.331-.032q-.212.048-6.749,4.461a3.038,3.038,0,0,1-1.735.641,11.419,11.419,0,0,1-2.487-.589c-1-.326-1.8-.5-1.729-1.051Q24.25,45.179,25.387,44.727Z" transform="translate(-18.144 -28.896)" fill="#fff"/>
</svg>
