<svg xmlns="http://www.w3.org/2000/svg" xmlns:xlink="http://www.w3.org/1999/xlink" width="256" height="192" viewBox="0 0 256 192">
  <defs>
    <clipPath id="clip-path">
      <rect id="Rectangle_16" data-name="Rectangle 16" width="256" height="192" transform="translate(122 303)" fill="#fff" stroke="#707070" stroke-width="1"/>
    </clipPath>
  </defs>
  <g id="Group_2" data-name="Group 2" transform="translate(-86 -34)">
    <rect id="Rectangle_13" data-name="Rectangle 13" width="256" height="192" transform="translate(86 34)" fill="#fff"/>
    <g id="Mask_Group_3" data-name="Mask Group 3" transform="translate(-36 -269)" clip-path="url(#clip-path)">
      <g id="_128" data-name="128" transform="translate(-534 88.239)">
        <path id="Path_23" data-name="Path 23" d="M0-.239H97.643V23.293L73.467,107.845v19.917H0Z" transform="translate(720 248)" fill="red"/>
        <path id="Path_24" data-name="Path 24" d="M35.967-85.083V-120.4H60.639V-137.1H35.967v-15.879H66.151v-17.182H17.371l-1.152,3.47-5.181,1.8v79.818Z" transform="translate(781.849 441.064)"/>
        <path id="Path_25" data-name="Path 25" d="M43.272-85.083v-32.943l24.536-52.14H44.09L31.821-139.949h-.273L19.962-170.166H-4.029l24.264,52.14v32.943Z" transform="translate(749.895 441.064)" fill="#fff"/>
      </g>
      <path id="Path_26" data-name="Path 26" d="M0,0H162V34L0,33Z" transform="translate(121.65 303)" fill="red"/>
      <rect id="Rectangle_14" data-name="Rectangle 14" width="69" height="143" transform="translate(122 336)" fill="red"/>
      <rect id="Rectangle_15" data-name="Rectangle 15" width="138" height="44" transform="translate(121.5 451)" fill="red"/>
    </g>
  </g>
</svg>
